<svg width="24" height="24" viewBox="0 0 24 24" fill="none" xmlns="http://www.w3.org/2000/svg">
<path fill-rule="evenodd" clip-rule="evenodd" d="M7 6H9V8.5C9 9.74837 10.3851 11 12 11C13.6149 11 15 9.74837 15 8.5V6H17V8.5C17 10.9007 14.6768 13 12 13C9.32324 13 7 10.9007 7 8.5V6Z" fill="black"/>
<path fill-rule="evenodd" clip-rule="evenodd" d="M3.05386 2H20.9458L21.9397 19.8891C22.0034 21.0355 21.0909 22 19.9428 22H4.05695C2.90878 22 1.99634 21.0355 2.06003 19.8891L3.05386 2ZM4.94584 4L4.05695 20H19.9428L19.0539 4H4.94584Z" fill="black"/>
</svg>
